<svg width="17" height="17" viewBox="0 0 17 17" fill="none" xmlns="http://www.w3.org/2000/svg">
<path fill-rule="evenodd" clip-rule="evenodd" d="M8.5 4.91063C9.88699 3.485 13.3545 5.97984 8.5 9.1875C3.64554 5.97984 7.11301 3.485 8.5 4.91063Z" fill="#808CD7"/>
<path d="M2.5 2.5C2.5 1.39543 3.39543 0.5 4.5 0.5H12.5C13.6046 0.5 14.5 1.39543 14.5 2.5V16C14.5 16.1844 14.3985 16.3538 14.2359 16.4408C14.0733 16.5278 13.8761 16.5183 13.7226 16.416L8.5 13.6009L3.27735 16.416C3.12392 16.5183 2.92665 16.5278 2.76407 16.4408C2.60149 16.3538 2.5 16.1844 2.5 16V2.5ZM4.5 1.5C3.94772 1.5 3.5 1.94772 3.5 2.5V15.0657L8.22265 12.584C8.3906 12.472 8.6094 12.472 8.77735 12.584L13.5 15.0657V2.5C13.5 1.94772 13.0523 1.5 12.5 1.5H4.5Z" fill="#808CD7"/>
</svg>
