<svg width="17" height="17" viewBox="0 0 17 17" fill="none" xmlns="http://www.w3.org/2000/svg">
<path d="M14.5 1.5C15.0523 1.5 15.5 1.94772 15.5 2.5V10.5C15.5 11.0523 15.0523 11.5 14.5 11.5H4.91421C4.38378 11.5 3.87507 11.7107 3.5 12.0858L1.5 14.0858V2.5C1.5 1.94772 1.94772 1.5 2.5 1.5H14.5ZM2.5 0.5C1.39543 0.5 0.5 1.39543 0.5 2.5V15.2929C0.5 15.7383 1.03857 15.9614 1.35355 15.6464L4.20711 12.7929C4.39464 12.6054 4.649 12.5 4.91421 12.5H14.5C15.6046 12.5 16.5 11.6046 16.5 10.5V2.5C16.5 1.39543 15.6046 0.5 14.5 0.5H2.5Z" fill="#808CD7"/>
<path d="M3.5 4C3.5 3.72386 3.72386 3.5 4 3.5H13C13.2761 3.5 13.5 3.72386 13.5 4C13.5 4.27614 13.2761 4.5 13 4.5H4C3.72386 4.5 3.5 4.27614 3.5 4ZM3.5 6.5C3.5 6.22386 3.72386 6 4 6H13C13.2761 6 13.5 6.22386 13.5 6.5C13.5 6.77614 13.2761 7 13 7H4C3.72386 7 3.5 6.77614 3.5 6.5ZM3.5 9C3.5 8.72386 3.72386 8.5 4 8.5H9C9.27614 8.5 9.5 8.72386 9.5 9C9.5 9.27614 9.27614 9.5 9 9.5H4C3.72386 9.5 3.5 9.27614 3.5 9Z" fill="#808CD7"/>
</svg>
