<svg width="17" height="17" viewBox="0 0 17 17" fill="none" xmlns="http://www.w3.org/2000/svg">
<path fill-rule="evenodd" clip-rule="evenodd" d="M1 6.50003C0.848345 6.50003 0.704881 6.56886 0.609984 6.68717C0.515086 6.80547 0.479011 6.96045 0.511911 7.10849L2.16388 14.5424C2.41807 15.6862 3.4326 16.5 4.60435 16.5H10.3957C11.5674 16.5 12.5819 15.6862 12.8361 14.5424L12.9671 13.9528C13.1403 13.9838 13.3184 14 13.5 14C15.1569 14 16.5 12.6569 16.5 11C16.5 9.60856 15.5529 8.43861 14.2679 8.09929L14.4881 7.10849C14.521 6.96045 14.4849 6.80547 14.39 6.68717C14.2951 6.56886 14.1517 6.50003 14 6.50003H1ZM13.5 13C13.3924 13 13.287 12.9916 13.1844 12.9753L14.0507 9.07673C14.8873 9.3158 15.5 10.0865 15.5 11C15.5 12.1046 14.6046 13 13.5 13ZM3.14007 14.3254L1.62331 7.50003H13.3767L11.8599 14.3254C11.7074 15.0117 11.0987 15.5 10.3957 15.5H4.60435C3.9013 15.5 3.29258 15.0117 3.14007 14.3254Z" fill="#2BBEB8"/>
<path d="M4.90006 1.29993L4.89675 1.3044L4.88349 1.32256C4.87162 1.33895 4.85416 1.36339 4.83297 1.39399C4.79027 1.45568 4.7341 1.54 4.67875 1.63226C4.62246 1.72607 4.57232 1.81932 4.5377 1.9001C4.51233 1.95929 4.50398 1.99208 4.50126 2.00274C4.50062 2.00526 4.50013 2.00665 4.50013 2.00665C4.50183 2.05153 4.52108 2.12873 4.59204 2.25488C4.66668 2.38758 4.77043 2.52725 4.9 2.70001L4.90915 2.71221C5.02777 2.87034 5.16953 3.05931 5.27954 3.25488C5.39245 3.45561 5.5 3.71043 5.5 4.00001C5.5 4.18771 5.43524 4.36832 5.38145 4.49385C5.32232 4.63182 5.24746 4.76773 5.17875 4.88226C5.1091 4.99834 5.04027 5.10151 4.98922 5.17524C4.96353 5.21235 4.94193 5.24259 4.92646 5.26397L4.90798 5.28927L4.90259 5.29655L4.90093 5.29877L4.90016 5.29979C4.73448 5.52071 4.42091 5.5657 4.2 5.40001C3.97917 5.23439 3.93435 4.92117 4.09981 4.70027L4.10325 4.69562L4.11651 4.67746C4.12838 4.66108 4.14584 4.63663 4.16703 4.60603C4.20973 4.54435 4.2659 4.46002 4.32125 4.36776C4.37754 4.27396 4.42768 4.1807 4.4623 4.09993C4.48767 4.04074 4.49602 4.00795 4.49874 3.99729C4.49938 3.99476 4.49987 3.99337 4.49987 3.99337C4.49817 3.94849 4.47892 3.87129 4.40796 3.74514C4.33332 3.61244 4.22957 3.47278 4.1 3.30001L4.09085 3.28781C3.97222 3.12968 3.83047 2.94071 3.72046 2.74514C3.60755 2.54441 3.5 2.28959 3.5 2.00001C3.5 1.81232 3.56476 1.6317 3.61855 1.50618C3.67768 1.3682 3.75254 1.23229 3.82125 1.11776C3.8909 1.00169 3.95973 0.898513 4.01078 0.824781C4.03647 0.787673 4.05807 0.757429 4.07354 0.736053L4.09907 0.701256L4.09984 0.70023C4.26552 0.479316 4.57909 0.434326 4.8 0.600011C5.02082 0.765628 5.06551 1.07903 4.90006 1.29993Z" fill="#2BBEB8"/>
<path d="M7.90006 1.29993L7.89675 1.3044L7.88349 1.32256C7.87162 1.33895 7.85416 1.36339 7.83297 1.39399C7.79027 1.45568 7.7341 1.54 7.67875 1.63226C7.62246 1.72607 7.57232 1.81932 7.5377 1.9001C7.51233 1.95929 7.50398 1.99208 7.50126 2.00274C7.50062 2.00526 7.50013 2.00665 7.50013 2.00665C7.50183 2.05153 7.52108 2.12873 7.59204 2.25488C7.66668 2.38758 7.77043 2.52725 7.9 2.70001L7.90915 2.71221C8.02777 2.87034 8.16953 3.05931 8.27954 3.25488C8.39245 3.45561 8.5 3.71043 8.5 4.00001C8.5 4.18771 8.43524 4.36832 8.38145 4.49385C8.32232 4.63182 8.24746 4.76773 8.17875 4.88226C8.1091 4.99834 8.04027 5.10151 7.98922 5.17524C7.96353 5.21235 7.94193 5.24259 7.92646 5.26397L7.90798 5.28927L7.90259 5.29655L7.90093 5.29877L7.90016 5.29979C7.73448 5.52071 7.42091 5.5657 7.2 5.40001C6.97917 5.23439 6.93435 4.92117 7.0998 4.70027L7.10325 4.69562L7.11651 4.67746C7.12838 4.66108 7.14584 4.63663 7.16703 4.60603C7.20973 4.54435 7.2659 4.46002 7.32125 4.36776C7.37754 4.27396 7.42768 4.1807 7.4623 4.09993C7.48767 4.04074 7.49602 4.00795 7.49874 3.99729C7.49938 3.99476 7.49987 3.99337 7.49987 3.99337C7.49817 3.94849 7.47892 3.87129 7.40796 3.74514C7.33332 3.61244 7.22957 3.47278 7.1 3.30001L7.09085 3.28781C6.97222 3.12968 6.83047 2.94071 6.72046 2.74514C6.60755 2.54441 6.5 2.28959 6.5 2.00001C6.5 1.81232 6.56476 1.6317 6.61855 1.50618C6.67768 1.3682 6.75254 1.23229 6.82125 1.11776C6.8909 1.00169 6.95973 0.898513 7.01078 0.824781C7.03647 0.787673 7.05807 0.757429 7.07354 0.736053L7.09907 0.701256L7.09984 0.70023C7.26552 0.479316 7.57909 0.434326 7.8 0.600011C8.02082 0.765628 8.06551 1.07903 7.90006 1.29993Z" fill="#2BBEB8"/>
<path d="M10.9001 1.29993L10.8967 1.3044L10.8835 1.32256C10.8716 1.33895 10.8542 1.36339 10.833 1.39399C10.7903 1.45568 10.7341 1.54 10.6787 1.63226C10.6225 1.72607 10.5723 1.81932 10.5377 1.9001C10.5123 1.95929 10.504 1.99208 10.5013 2.00274C10.5006 2.00526 10.5001 2.00665 10.5001 2.00665C10.5018 2.05153 10.5211 2.12873 10.592 2.25488C10.6667 2.38758 10.7704 2.52725 10.9 2.70001L10.9092 2.71221C11.0278 2.87034 11.1695 3.05931 11.2795 3.25488C11.3924 3.45561 11.5 3.71043 11.5 4.00001C11.5 4.18771 11.4352 4.36832 11.3814 4.49385C11.3223 4.63182 11.2475 4.76773 11.1787 4.88226C11.1091 4.99834 11.0403 5.10151 10.9892 5.17524C10.9635 5.21235 10.9419 5.24259 10.9265 5.26397L10.908 5.28927L10.9026 5.29655L10.9009 5.29877L10.9002 5.29979C10.7345 5.52071 10.4209 5.5657 10.2 5.40001C9.97917 5.23439 9.93435 4.92117 10.0998 4.70027L10.1033 4.69562L10.1165 4.67746C10.1284 4.66108 10.1458 4.63663 10.167 4.60603C10.2097 4.54435 10.2659 4.46002 10.3213 4.36776C10.3775 4.27396 10.4277 4.1807 10.4623 4.09993C10.4877 4.04074 10.496 4.00795 10.4987 3.99729C10.4994 3.99476 10.4999 3.99337 10.4999 3.99337C10.4982 3.94849 10.4789 3.87129 10.408 3.74514C10.3333 3.61244 10.2296 3.47278 10.1 3.30001L10.0908 3.28781C9.97222 3.12968 9.83047 2.94071 9.72046 2.74514C9.60755 2.54441 9.5 2.28959 9.5 2.00001C9.5 1.81232 9.56476 1.6317 9.61855 1.50618C9.67768 1.3682 9.75254 1.23229 9.82125 1.11776C9.8909 1.00169 9.95973 0.898513 10.0108 0.824781C10.0365 0.787673 10.0581 0.757429 10.0735 0.736053L10.0991 0.701256L10.0998 0.70023C10.2655 0.479316 10.5791 0.434326 10.8 0.600011C11.0208 0.765628 11.0655 1.07903 10.9001 1.29993Z" fill="#2BBEB8"/>
</svg>
